#define alc40db_width  205
#define alc40db_height 18
static unsigned char alc40db_bits[] = {
 0x00,0x00,0x00,0x00,0x00,0x00,0x00,0x00,0x00,0x00,0x00,0x00,
 0x00,0x00,0x00,0x00,0x00,0x00,0x00,0x00,0x00,0x00,0x00,0x00,
 0x00,0xe0,0x00,0x00,0x00,0x00,0x00,0x00,0xc8,0x00,0x00,0x00,
 0x00,0x00,0x1c,0x03,0x00,0x00,0x00,0x00,0x70,0x0c,0x00,0x00,
 0x00,0x00,0x80,0xec,0x20,0x02,0x07,0x00,0x00,0x00,0x2e,0x01,
 0x00,0x00,0x00,0x00,0xa2,0x04,0x00,0x00,0x00,0x00,0x88,0x12,
 0x00,0x00,0x00,0x00,0xc0,0xf2,0x50,0x82,0x08,0x00,0x00,0x00,
 0x28,0x01,0x00,0x00,0x00,0x00,0xa0,0x04,0x00,0x00,0x00,0x00,
 0x80,0x12,0x00,0x00,0x00,0x00,0xa0,0xf2,0x50,0x82,0x00,0x00,
 0x00,0x00,0x28,0x01,0x00,0x00,0x00,0x00,0xa0,0x04,0x00,0x00,
 0x00,0x00,0x80,0x12,0x00,0x00,0x00,0x00,0xa0,0xf2,0x88,0x82,
 0x00,0x00,0x00,0x00,0x28,0x01,0x00,0x00,0x00,0x00,0xa0,0x04,
 0x00,0x00,0x00,0x00,0xe0,0x12,0x00,0x00,0x00,0x00,0x90,0xf2,
 0xf8,0x82,0x00,0x00,0x00,0x00,0x28,0x01,0x00,0x00,0x00,0x00,
 0x90,0x04,0x00,0x00,0x00,0x00,0x80,0x12,0x00,0x00,0x00,0x00,
 0xf0,0xf3,0x88,0x82,0x00,0x00,0x00,0x00,0x28,0x01,0x00,0x00,
 0x00,0x00,0x88,0x04,0x00,0x00,0x00,0x00,0x80,0x12,0x00,0x00,
 0x00,0x00,0x80,0xf2,0x88,0x82,0x08,0x00,0x00,0x00,0x28,0x01,
 0x00,0x00,0x00,0x00,0x84,0x04,0x00,0x00,0x00,0x00,0x88,0x12,
 0x00,0x00,0x00,0x00,0x80,0xf2,0x88,0x3e,0x07,0x00,0x00,0x00,
 0xc8,0x00,0x00,0x00,0x00,0x00,0x3e,0x03,0x00,0x00,0x00,0x00,
 0x70,0x0c,0x00,0x00,0x00,0x00,0x80,0xec,0x00,0x00,0x00,0x00,
 0x00,0x00,0x00,0x00,0x00,0x00,0x00,0x00,0x00,0x00,0x00,0x00,
 0x00,0x00,0x00,0x00,0x00,0x00,0x00,0x00,0x00,0xe0,0x04,0x00,
 0x00,0x00,0x00,0x00,0x10,0x00,0x00,0x00,0x00,0x00,0x40,0x00,
 0x00,0x00,0x00,0x00,0x00,0x01,0x00,0x00,0x00,0x00,0x00,0xe4,
 0x04,0x00,0x00,0x08,0x00,0x00,0x10,0x00,0x00,0x20,0x00,0x00,
 0x40,0x00,0x00,0x80,0x00,0x00,0x00,0x01,0x00,0x00,0x02,0x00,
 0x00,0xe4,0x04,0x00,0x00,0x08,0x00,0x00,0x10,0x00,0x00,0x20,
 0x00,0x00,0x40,0x00,0x00,0x80,0x00,0x00,0x00,0x01,0x00,0x00,
 0x02,0x00,0x00,0xe4,0x04,0x00,0x00,0x08,0x00,0x00,0x10,0x00,
 0x00,0x20,0x00,0x00,0x40,0x00,0x00,0x80,0x00,0x00,0x00,0x01,
 0x00,0x00,0x02,0x00,0x00,0xe4,0x84,0x10,0x42,0x08,0x21,0x84,
 0x10,0x42,0x08,0x21,0x84,0x10,0x42,0x08,0x21,0x84,0x10,0x42,
 0x08,0x21,0x84,0x10,0x42,0x08,0x21,0xe4,0x84,0x10,0x42,0x08,
 0x21,0x84,0x10,0x42,0x08,0x21,0x84,0x10,0x42,0x08,0x21,0x84,
 0x10,0x42,0x08,0x21,0x84,0x10,0x42,0x08,0x21,0xe4,0xfc,0xff,
 0xff,0xff,0xff,0xff,0xff,0xff,0xff,0xff,0xff,0xff,0xff,0xff,
 0xff,0xff,0xff,0xff,0xff,0xff,0xff,0xff,0xff,0xff,0xff,0xe7};

