#define idd5_width 205
#define idd5_height 18
static unsigned char idd5_bits[] = {
   0x00, 0x00, 0x00, 0x00, 0x00, 0x00, 0x00, 0x00, 0x00, 0x00, 0x00, 0x00,
   0x00, 0x00, 0x00, 0x00, 0x00, 0x00, 0x00, 0x00, 0x00, 0x00, 0x00, 0x00,
   0x00, 0x00, 0xe8, 0x38, 0x00, 0x00, 0x00, 0x04, 0x00, 0x00, 0x00, 0x00,
   0x0e, 0x00, 0x00, 0x00, 0x00, 0x0e, 0x00, 0x00, 0x00, 0x00, 0x08, 0x00,
   0x00, 0x00, 0x00, 0x00, 0x28, 0x49, 0x00, 0x00, 0x00, 0x07, 0x00, 0x00,
   0x00, 0x00, 0x11, 0x00, 0x00, 0x00, 0x00, 0x11, 0x00, 0x00, 0x00, 0x00,
   0x0c, 0x00, 0x00, 0x00, 0x00, 0x00, 0x28, 0x8a, 0x00, 0x00, 0x00, 0x04,
   0x00, 0x00, 0x00, 0x00, 0x10, 0x00, 0x00, 0x00, 0x00, 0x10, 0x00, 0x00,
   0x00, 0x00, 0x0a, 0x00, 0x00, 0x00, 0x00, 0x00, 0x28, 0x8a, 0x00, 0x00,
   0x00, 0x04, 0x00, 0x00, 0x00, 0x00, 0x10, 0x00, 0x00, 0x00, 0x00, 0x10,
   0x00, 0x00, 0x00, 0x00, 0x0a, 0x00, 0x00, 0x00, 0x00, 0x00, 0x28, 0x8a,
   0x00, 0x00, 0x00, 0x04, 0x00, 0x00, 0x00, 0x00, 0x08, 0x00, 0x00, 0x00,
   0x00, 0x0c, 0x00, 0x00, 0x00, 0x00, 0x09, 0x00, 0x00, 0x00, 0x00, 0x00,
   0x28, 0x8a, 0x00, 0x00, 0x00, 0x04, 0x00, 0x00, 0x00, 0x00, 0x04, 0x00,
   0x00, 0x00, 0x00, 0x10, 0x00, 0x00, 0x00, 0x00, 0x0f, 0x00, 0x00, 0x00,
   0x00, 0x00, 0x28, 0x8a, 0x00, 0x00, 0x00, 0x04, 0x00, 0x00, 0x00, 0x00,
   0x02, 0x00, 0x00, 0x00, 0x00, 0x10, 0x00, 0x00, 0x00, 0x00, 0x08, 0x00,
   0x00, 0x00, 0x00, 0x00, 0x28, 0x49, 0x00, 0x00, 0x00, 0x04, 0x00, 0x00,
   0x00, 0x00, 0x01, 0x00, 0x00, 0x00, 0x00, 0x11, 0x00, 0x00, 0x00, 0x00,
   0x08, 0x00, 0x00, 0x00, 0x00, 0x00, 0xe8, 0x38, 0x00, 0x00, 0x00, 0x04,
   0x00, 0x00, 0x00, 0x00, 0x1f, 0x00, 0x00, 0x00, 0x00, 0x0e, 0x00, 0x00,
   0x00, 0x00, 0x08, 0x00, 0x00, 0x00, 0x00, 0x00, 0x00, 0x00, 0x00, 0x00,
   0x00, 0x00, 0x00, 0x00, 0x00, 0x00, 0x00, 0x00, 0x00, 0x00, 0x00, 0x00,
   0x00, 0x00, 0x00, 0x00, 0x00, 0x00, 0x00, 0x00, 0x00, 0x00, 0x04, 0x00,
   0x00, 0x00, 0x00, 0x04, 0x00, 0x00, 0x00, 0x00, 0x04, 0x00, 0x00, 0x00,
   0x00, 0x04, 0x00, 0x00, 0x00, 0x00, 0x04, 0x00, 0x00, 0x00, 0x00, 0x04,
   0x04, 0x00, 0x40, 0x00, 0x00, 0x04, 0x00, 0x40, 0x00, 0x00, 0x04, 0x00,
   0x40, 0x00, 0x00, 0x04, 0x00, 0x40, 0x00, 0x00, 0x04, 0x00, 0x40, 0x00,
   0x00, 0x04, 0x04, 0x00, 0x40, 0x00, 0x00, 0x04, 0x00, 0x40, 0x00, 0x00,
   0x04, 0x00, 0x40, 0x00, 0x00, 0x04, 0x00, 0x40, 0x00, 0x00, 0x04, 0x00,
   0x40, 0x00, 0x00, 0x04, 0x04, 0x00, 0x40, 0x00, 0x00, 0x04, 0x00, 0x40,
   0x00, 0x00, 0x04, 0x00, 0x40, 0x00, 0x00, 0x04, 0x00, 0x40, 0x00, 0x00,
   0x04, 0x00, 0x40, 0x00, 0x00, 0x04, 0x44, 0x44, 0x44, 0x44, 0x44, 0x44,
   0x44, 0x44, 0x44, 0x44, 0x44, 0x44, 0x44, 0x44, 0x44, 0x44, 0x44, 0x44,
   0x44, 0x44, 0x44, 0x44, 0x44, 0x44, 0x44, 0x04, 0x44, 0x44, 0x44, 0x44,
   0x44, 0x44, 0x44, 0x44, 0x44, 0x44, 0x44, 0x44, 0x44, 0x44, 0x44, 0x44,
   0x44, 0x44, 0x44, 0x44, 0x44, 0x44, 0x44, 0x44, 0x44, 0x04, 0xfc, 0xff,
   0xff, 0xff, 0xff, 0xff, 0xff, 0xff, 0xff, 0xff, 0xff, 0xff, 0xff, 0xff,
   0xff, 0xff, 0xff, 0xff, 0xff, 0xff, 0xff, 0xff, 0xff, 0xff, 0xff, 0x07 };
